<?xml version="1.0" encoding="UTF-8"?>
<svg width="600" height="400" viewBox="0 0 600 400" fill="none" xmlns="http://www.w3.org/2000/svg">
  <!-- Bookshelf Structure -->
  <path d="M50 350 L550 350 L550 50 L50 50 Z" stroke="#333" stroke-width="4" fill="#f8f8f8"/>
  
  <!-- Shelf Lines -->
  <path d="M50 125 L550 125" stroke="#333" stroke-width="2"/>
  <path d="M50 200 L550 200" stroke="#333" stroke-width="2"/>
  <path d="M50 275 L550 275" stroke="#333" stroke-width="2"/>
  
  <!-- Books on Top Shelf -->
  <rect x="70" y="60" width="30" height="60" fill="#FF6B6B"/>
  <rect x="105" y="65" width="25" height="55" fill="#4ECDC4"/>
  <rect x="135" y="55" width="35" height="65" fill="#45B7D1"/>
  <rect x="175" y="62" width="28" height="58" fill="#96CEB4"/>
  
  <!-- Books on Second Shelf -->
  <rect x="80" y="135" width="40" height="60" fill="#FF9F1C"/>
  <rect x="125" y="140" width="30" height="55" fill="#2EC4B6"/>
  <rect x="160" y="130" width="25" height="65" fill="#E71D36"/>
  <rect x="190" y="135" width="35" height="60" fill="#011627"/>
  
  <!-- Books on Third Shelf -->
  <rect x="75" y="210" width="35" height="60" fill="#D81E5B"/>
  <rect x="115" y="215" width="28" height="55" fill="#23CE6B"/>
  <rect x="148" y="205" width="32" height="65" fill="#6C464F"/>
  <rect x="185" y="210" width="30" height="60" fill="#0A2463"/>
  
  <!-- Books on Bottom Shelf -->
  <rect x="85" y="285" width="38" height="60" fill="#3D348B"/>
  <rect x="128" y="290" width="25" height="55" fill="#F7B267"/>
  <rect x="158" y="280" width="35" height="65" fill="#7678ED"/>
  <rect x="198" y="285" width="32" height="60" fill="#F18701"/>
  
  <!-- Little Person Silhouette -->
  <path d="M500 330 C500 330, 490 320, 490 310 C490 300, 495 295, 500 295 C505 295, 510 300, 510 310 C510 320, 500 330, 500 330Z" fill="#333"/>
  <rect x="495" y="330" width="10" height="20" fill="#333"/>
  <path d="M490 345 L485 360 M510 345 L515 360" stroke="#333" stroke-width="2"/>
</svg> 