<svg width="181" height="60" viewBox="0 0 181 60" fill="none" xmlns="http://www.w3.org/2000/svg">
<path d="M65.8057 0.758545H65.7421C65.7633 -0.252848 65.7845 -0.252848 65.8057 0.758545Z" fill="#A5A6AA"/>
<path d="M65.7421 0.758545H65.8057C65.7921 0.949316 65.8497 1.15221 65.8497 1.31421V59.704C65.8509 59.7724 65.8401 59.8406 65.8178 59.9054C65.7461 60.0992 65.7097 59.975 65.7087 59.5329C65.7016 40.0166 65.6981 20.5009 65.6981 0.985654C65.7025 0.934075 65.7132 0.883226 65.7299 0.834248C65.7373 0.809663 65.7414 0.784205 65.7421 0.758545Z" fill="#C9CACB"/>
<path d="M83.1273 13.0603V6.89049C83.1273 6.87042 83.1353 6.85117 83.1495 6.83697C83.1637 6.82277 83.183 6.81479 83.2031 6.81479H85.5144C85.5345 6.81479 85.5538 6.82277 85.568 6.83697C85.5822 6.85117 85.5902 6.87042 85.5902 6.89049V25.627C85.5894 25.6488 85.5824 25.6699 85.57 25.6878C85.5577 25.7058 85.5405 25.7199 85.5205 25.7284C80.6297 27.8481 74.002 26.1827 74.2051 19.757C74.3688 14.7606 78.3896 12.3078 83.0425 13.1133C83.0593 13.1174 83.0771 13.1152 83.0925 13.1071C83.1078 13.099 83.1197 13.0856 83.1258 13.0694C83.127 13.0665 83.1276 13.0634 83.1273 13.0603ZM83.0546 15.3147C78.9246 13.9203 76.0283 17.3421 76.9134 21.2771C77.55 24.1069 80.4463 24.9684 83.0061 24.2522C83.0425 24.2394 83.0739 24.2153 83.0957 24.1835C83.1175 24.1516 83.1286 24.1137 83.1273 24.0751V15.4071C83.1265 15.386 83.1191 15.3657 83.106 15.3491C83.0929 15.3325 83.0749 15.3205 83.0546 15.3147Z" fill="#A5A6AA"/>
<path d="M90.143 10.6499C91.021 10.6499 91.7329 9.93882 91.7329 9.06166C91.7329 8.18449 91.021 7.47341 90.143 7.47341C89.2649 7.47341 88.5531 8.18449 88.5531 9.06166C88.5531 9.93882 89.2649 10.6499 90.143 10.6499Z" fill="#A5A6AA"/>
<path d="M129.694 13.2874H133.445C133.462 13.286 133.48 13.291 133.494 13.3017C133.508 13.3123 133.517 13.3277 133.521 13.3449C133.522 13.3509 133.522 13.3571 133.521 13.3631L132.893 15.1921C132.887 15.211 132.874 15.2273 132.858 15.2387C132.842 15.2502 132.822 15.2561 132.802 15.2557H129.695C129.685 15.2564 129.675 15.2592 129.666 15.2638C129.657 15.2684 129.649 15.2748 129.642 15.2825C129.636 15.2903 129.631 15.2992 129.628 15.3089C129.624 15.3186 129.623 15.3288 129.624 15.339C129.611 19.4693 129.611 22.1124 129.624 23.2681C129.653 25.2742 132.013 24.4339 132.958 23.9116C132.968 23.9067 132.978 23.9037 132.989 23.9029C133 23.9021 133.01 23.9034 133.021 23.9068C133.031 23.9101 133.04 23.9155 133.048 23.9226C133.056 23.9297 133.063 23.9383 133.067 23.9479L133.816 25.5089C133.831 25.5407 133.806 25.5876 133.756 25.6194C131.867 26.7913 128.312 27.347 127.372 24.7413C127.223 24.3295 127.149 23.6663 127.149 22.7518V15.3329C127.15 15.3123 127.143 15.2921 127.129 15.2768C127.115 15.2615 127.095 15.2523 127.075 15.2511H125.033C124.971 15.2511 124.92 15.2163 124.92 15.1754V13.3586C124.92 13.3162 124.971 13.2829 125.033 13.2829H127.079C127.099 13.2829 127.119 13.2749 127.133 13.2607C127.147 13.2465 127.155 13.2272 127.155 13.2072V10.3728C127.155 10.3527 127.161 10.3329 127.172 10.3163C127.183 10.2997 127.2 10.2872 127.219 10.2805L129.544 9.54616C129.552 9.54441 129.56 9.54428 129.568 9.5458C129.576 9.54732 129.583 9.55045 129.59 9.55499C129.596 9.55953 129.602 9.56538 129.606 9.57219C129.611 9.57901 129.614 9.58664 129.615 9.5946C129.616 9.60159 129.616 9.60881 129.615 9.6158V13.2117C129.615 13.2219 129.617 13.232 129.621 13.2414C129.625 13.2508 129.631 13.2593 129.638 13.2663C129.646 13.2734 129.654 13.2789 129.664 13.2825C129.673 13.2862 129.684 13.2878 129.694 13.2874ZM96.9434 14.7379C98.2984 13.3677 100.034 12.4365 101.986 13.2571C102.02 13.2703 102.048 13.2965 102.063 13.33C102.078 13.3634 102.079 13.4014 102.066 13.4358L101.27 15.4419C101.263 15.4605 101.249 15.4755 101.231 15.4838C101.213 15.492 101.192 15.4927 101.173 15.4858H101.166C99.6018 14.7091 98.1317 15.6539 97.0465 16.8288C97.0135 16.8647 96.9951 16.9117 96.995 16.9605V26.272C96.995 26.2921 96.987 26.3113 96.9728 26.3255C96.9586 26.3397 96.9393 26.3477 96.9192 26.3477H94.6079C94.5655 26.3477 94.5321 26.2962 94.5321 26.2341V13.3646C94.5321 13.3445 94.5401 13.3253 94.5543 13.3111C94.5685 13.2969 94.5878 13.2889 94.6079 13.2889H96.5403C96.5605 13.2899 96.5797 13.2981 96.5945 13.3119C96.6092 13.3258 96.6185 13.3445 96.6206 13.3646L96.8495 14.7273C96.8601 14.7894 96.8904 14.7939 96.9434 14.7409V14.7379ZM103.844 14.641C105.86 12.3396 109.682 12.3865 111.582 14.6864C112.784 16.1399 113.184 18.361 113.077 20.2793C113.075 20.3028 113.065 20.3247 113.048 20.3408C113.031 20.3568 113.008 20.3657 112.984 20.3656H104.724C104.716 20.3652 104.708 20.3664 104.701 20.3692C104.693 20.372 104.686 20.3762 104.68 20.3817C104.674 20.3872 104.669 20.3939 104.666 20.4013C104.663 20.4086 104.661 20.4166 104.661 20.4247C104.906 24.5838 108.78 25.4832 111.936 23.7193C111.978 23.6966 112.024 23.6981 112.037 23.7193L112.771 25.3424C112.786 25.3742 112.76 25.4196 112.713 25.4468C110.137 26.923 106.293 27.1925 104.058 24.9608C101.495 22.4036 101.546 17.2527 103.842 14.6319L103.844 14.641ZM110.512 18.4261C110.47 13.6568 104.731 13.8733 104.661 18.4261C104.659 18.4445 104.664 18.4628 104.676 18.4775C104.687 18.4921 104.703 18.5019 104.721 18.5049H110.443C110.462 18.5037 110.48 18.4949 110.493 18.4805C110.506 18.466 110.513 18.4471 110.512 18.4276V18.4261ZM116.111 15.0452C118.16 12.762 121.546 12.3563 124.227 13.7189C124.277 13.7447 124.31 13.781 124.31 13.8113V15.8159C124.31 15.887 124.28 15.9037 124.218 15.8674C121.29 14.0505 117.637 15.0043 116.996 18.6987C116.187 23.365 119.935 26.0979 124.05 23.6663C124.066 23.6556 124.085 23.6515 124.104 23.6549C124.123 23.6583 124.14 23.6689 124.151 23.6845L124.824 25.3075C124.832 25.3301 124.832 25.3547 124.824 25.3771C124.816 25.3996 124.8 25.4184 124.779 25.4302C122.571 26.7625 119.727 27.0396 117.452 25.8284C113.712 23.8344 113.475 17.9886 116.114 15.0467L116.111 15.0452Z" fill="#A5A6AA"/>
<path d="M91.31 13.2874H89.0033C88.9606 13.2874 88.926 13.322 88.926 13.3646V26.2675C88.926 26.3101 88.9606 26.3447 89.0033 26.3447L91.31 26.3447C91.3527 26.3447 91.3873 26.3101 91.3873 26.2675V13.3646C91.3873 13.322 91.3527 13.2874 91.31 13.2874Z" fill="#A5A6AA"/>
<path d="M2.27077 32.4403V38.9886C2.27077 39.028 2.24956 39.0613 2.22379 39.0613H0.300511C0.258074 39.0613 0.224731 39.0098 0.224731 38.9477V19.5677C0.224731 19.5477 0.232715 19.5284 0.246927 19.5142C0.261138 19.5 0.280413 19.492 0.300511 19.492H2.19499C2.21509 19.492 2.23437 19.5 2.24858 19.5142C2.26279 19.5284 2.27077 19.5477 2.27077 19.5677V30.469C2.27077 30.5265 2.29199 30.5341 2.33443 30.4947L7.01911 26.0146C7.05755 25.9809 7.1074 25.963 7.15854 25.9646H9.62137C9.70624 25.9646 9.71988 25.9904 9.66229 26.0449L4.05462 31.2593C4.03796 31.2763 4.02863 31.2991 4.02863 31.3229C4.02863 31.3467 4.03796 31.3695 4.05462 31.3865L10.4292 38.9856C10.4701 39.034 10.4534 39.0582 10.3822 39.0582H7.92846C7.90525 39.0548 7.88301 39.0466 7.86317 39.0341C7.84334 39.0216 7.82634 39.005 7.81328 38.9856L2.34655 32.3994C2.29351 32.3343 2.26623 32.3479 2.26623 32.4403H2.27077ZM40.1226 38.4314C36.467 40.1332 31.029 39.62 29.6302 35.0884C29.1133 33.4229 29.1755 31.1791 29.9333 29.5742C31.5201 26.2553 34.5892 25.2091 38.0674 25.8329C38.0837 25.8371 38.101 25.8346 38.1154 25.8261C38.1299 25.8176 38.1404 25.8037 38.1447 25.7875C38.1454 25.7845 38.1454 25.7814 38.1447 25.7784V19.5708C38.1447 19.5299 38.1659 19.4981 38.1917 19.4981H40.115C40.1574 19.4981 40.1908 19.548 40.1908 19.6116V38.3103C40.1912 38.336 40.1842 38.3613 40.1708 38.3833C40.1574 38.4053 40.1381 38.423 40.115 38.4344L40.1226 38.4314ZM37.0247 27.5105C33.0842 26.9594 30.6729 30.472 31.561 34.077C32.3006 37.0809 35.2712 38.1907 38.0462 37.305C38.0752 37.2959 38.1009 37.2784 38.1198 37.2546C38.1387 37.2309 38.15 37.202 38.1523 37.1717V27.8602C38.1516 27.839 38.1443 27.8185 38.1316 27.8014C38.1189 27.7844 38.1012 27.7716 38.0811 27.7649C37.7396 27.6408 37.3853 27.5555 37.0247 27.5105ZM43.9403 38.8841C43.2447 38.3754 43.1219 37.5835 43.1204 36.6736C43.1143 30.9726 43.1143 25.2697 43.1204 19.5647C43.1202 19.5548 43.122 19.545 43.1256 19.5358C43.1292 19.5267 43.1347 19.5183 43.1416 19.5113C43.1485 19.5042 43.1568 19.4986 43.1659 19.4948C43.175 19.491 43.1848 19.489 43.1947 19.489H45.0861C45.0966 19.4894 45.1069 19.4919 45.1164 19.4963C45.1259 19.5007 45.1345 19.507 45.1415 19.5147C45.1486 19.5225 45.154 19.5316 45.1575 19.5414C45.161 19.5513 45.1625 19.5618 45.1619 19.5723C45.1619 25.1834 45.1619 30.795 45.1619 36.4071C45.1619 37.5714 46.0076 37.467 46.8563 37.4382C46.877 37.4367 46.8975 37.4428 46.9139 37.4553C46.9304 37.4679 46.9417 37.486 46.9457 37.5063L47.1685 38.7933C47.1707 38.8156 47.1659 38.8381 47.1547 38.8576C47.1436 38.8771 47.1267 38.8927 47.1064 38.9023C46.1773 39.4156 44.836 39.5397 43.9403 38.8841Z" fill="#F8981D"/>
<path d="M12.7799 23.2787C13.5633 23.2787 14.1984 22.6442 14.1984 21.8615C14.1984 21.0789 13.5633 20.4444 12.7799 20.4444C11.9964 20.4444 11.3613 21.0789 11.3613 21.8615C11.3613 22.6442 11.9964 23.2787 12.7799 23.2787Z" fill="#F8981D"/>
<path d="M18.821 27.4636C20.1183 26.4461 21.7006 25.627 23.3587 25.6633C25.9852 25.7209 27.1143 27.8163 27.134 30.1798C27.1592 33.114 27.1683 36.0513 27.1613 38.9916C27.1613 39.0109 27.1536 39.0294 27.14 39.043C27.1263 39.0566 27.1078 39.0643 27.0885 39.0643H25.1561C25.1182 39.0643 25.0864 39.0189 25.0864 38.9644C25.0793 36.13 25.0753 33.2998 25.0743 30.4735C25.0743 28.908 24.365 27.3515 22.4978 27.6104C21.1262 27.8012 19.9016 28.6233 18.8907 29.5227C18.873 29.5366 18.8587 29.5543 18.8487 29.5745C18.8388 29.5946 18.8334 29.6168 18.8331 29.6393V38.9886C18.8331 39.028 18.8119 39.0613 18.7861 39.0613H16.8628C16.8204 39.0613 16.7871 39.0098 16.7871 38.9477V26.0434C16.7871 26.0233 16.7951 26.004 16.8093 25.9898C16.8235 25.9756 16.8427 25.9677 16.8628 25.9677H18.3784C18.4005 25.9687 18.4215 25.9772 18.438 25.9918C18.4545 26.0064 18.4656 26.0262 18.4694 26.0479L18.7482 27.4378C18.7495 27.4439 18.7519 27.4496 18.7555 27.4547C18.759 27.4597 18.7635 27.464 18.7688 27.4673C18.774 27.4705 18.7799 27.4727 18.786 27.4736C18.7921 27.4745 18.7983 27.4742 18.8043 27.4726C18.812 27.4712 18.8192 27.4681 18.8255 27.4636H18.821ZM50.4376 32.9808C50.4664 37.1975 54.3888 38.6464 57.7382 36.6539C57.7638 36.6396 57.794 36.6358 57.8224 36.6434C57.8507 36.6511 57.8749 36.6695 57.8898 36.6948C57.8929 36.699 57.8954 36.7036 57.8974 36.7084L58.4551 37.9681C58.4664 37.9926 58.4684 38.0203 58.4609 38.0461C58.4534 38.072 58.4368 38.0943 58.4142 38.1089C54.6874 40.3921 50.0982 39.4882 48.7038 35.1368C47.5308 31.4743 48.6402 25.7799 53.4931 25.6679C57.5548 25.5755 58.9128 29.4212 58.7901 32.8173C58.7909 32.8362 58.7845 32.8548 58.7721 32.8691C58.7597 32.8835 58.7423 32.8926 58.7234 32.8945H50.5043C50.4842 32.8975 50.466 32.9082 50.4536 32.9243C50.4412 32.9403 50.4355 32.9606 50.4376 32.9808ZM52.1866 27.783C51.0318 28.4886 50.4498 29.7346 50.4786 31.0867C50.4785 31.1039 50.4852 31.1204 50.497 31.1328C50.5089 31.1452 50.5251 31.1525 50.5422 31.1533H56.453C56.4652 31.1535 56.4772 31.1513 56.4885 31.1469C56.4998 31.1424 56.5101 31.1358 56.5188 31.1273C56.5276 31.1189 56.5345 31.1088 56.5394 31.0977C56.5442 31.0866 56.5468 31.0746 56.547 31.0625C56.5557 30.2624 56.3405 29.4758 55.9256 28.7914C55.1284 27.4832 53.5264 26.9609 52.1866 27.7785V27.783Z" fill="#F8981D"/>
<path d="M13.7407 25.9677L11.8675 25.9677C11.8198 25.9677 11.7811 26.0063 11.7811 26.054V38.978C11.7811 39.0257 11.8198 39.0643 11.8675 39.0643H13.7407C13.7884 39.0643 13.8271 39.0257 13.8271 38.978V26.054C13.8271 26.0063 13.7884 25.9677 13.7407 25.9677Z" fill="#F8981D"/>
<path d="M102.913 36.3496C103.152 36.292 103.39 36.2285 103.627 36.1588C105.422 35.6289 107.498 35.8181 109.044 36.8901C111.372 38.5086 111.958 41.5837 111.357 44.2409C110.312 48.8512 105.649 50.2759 101.54 49.1707C101.151 49.0708 100.778 48.9179 100.431 48.7164C100.412 48.7054 100.396 48.6897 100.385 48.6709C100.374 48.6521 100.368 48.6308 100.367 48.6089V29.8346C100.367 29.8145 100.375 29.7952 100.389 29.781C100.404 29.7669 100.423 29.7589 100.443 29.7589H102.754C102.774 29.7589 102.794 29.7669 102.808 29.781C102.822 29.7952 102.83 29.8145 102.83 29.8346V36.3072C102.831 36.315 102.833 36.3226 102.837 36.3295C102.841 36.3363 102.846 36.3423 102.852 36.347C102.858 36.3517 102.866 36.3551 102.873 36.3568C102.881 36.3585 102.889 36.3587 102.897 36.3572L102.913 36.3496ZM102.897 47.1357C105.496 48.0563 108.128 46.7905 108.824 44.0607C109.826 40.1241 107.148 36.5101 102.935 38.5086C102.902 38.5251 102.875 38.5505 102.856 38.5819C102.838 38.6133 102.829 38.6494 102.83 38.6858V47.0888C102.831 47.0976 102.835 47.1058 102.841 47.1123C102.847 47.1188 102.855 47.1233 102.863 47.1252C102.875 47.1274 102.886 47.1309 102.897 47.1357ZM117.996 49.045C116.214 49.746 113.35 49.6052 113.333 47.0025C113.318 44.7668 113.318 39.0446 113.333 29.8361C113.332 29.8258 113.333 29.8155 113.337 29.8057C113.34 29.7959 113.345 29.7869 113.352 29.7791C113.359 29.7714 113.367 29.7651 113.376 29.7605C113.385 29.756 113.395 29.7534 113.406 29.7528H115.712C115.734 29.7544 115.753 29.7641 115.767 29.78C115.781 29.7959 115.788 29.8166 115.787 29.8376C115.787 35.3114 115.787 40.7843 115.787 46.2561C115.787 47.4325 116.696 47.2978 117.501 47.1373C117.523 47.1331 117.546 47.1376 117.565 47.1497C117.583 47.1618 117.597 47.1806 117.602 47.2024L118.057 48.9435C118.06 48.9648 118.056 48.9865 118.045 49.005C118.034 49.0234 118.017 49.0376 117.996 49.045ZM138.863 37.6259C138.863 37.7259 138.899 37.744 138.972 37.6774C142.132 34.7583 147.22 35.1626 147.232 40.4921C147.239 43.3809 147.239 46.2712 147.232 49.1631C147.233 49.1837 147.226 49.204 147.213 49.2196C147.199 49.2352 147.18 49.2448 147.159 49.2464H144.85C144.829 49.2448 144.809 49.235 144.795 49.2192C144.781 49.2033 144.774 49.1826 144.775 49.1616C144.775 46.3757 144.775 43.5908 144.775 40.807C144.775 39.4201 144.18 38.1665 142.688 38.0544C141.417 37.9575 139.91 38.9038 138.93 39.7441C138.912 39.7577 138.898 39.7751 138.887 39.795C138.877 39.8149 138.871 39.8368 138.871 39.8592V49.1707C138.871 49.1907 138.863 49.21 138.848 49.2242C138.834 49.2384 138.815 49.2464 138.795 49.2464L136.476 49.2464C136.456 49.2464 136.437 49.2384 136.422 49.2242C136.408 49.21 136.4 49.1907 136.4 49.1707V29.8285C136.4 29.8084 136.408 29.7892 136.422 29.775C136.437 29.7608 136.456 29.7528 136.476 29.7528H138.787C138.807 29.7528 138.827 29.7608 138.841 29.775C138.855 29.7892 138.863 29.8084 138.863 29.8285V37.6259Z" fill="#A5A6AA"/>
<path d="M121.328 33.5834C122.207 33.5834 122.919 32.8716 122.919 31.9936C122.919 31.1156 122.207 30.4039 121.328 30.4039C120.449 30.4039 119.736 31.1156 119.736 31.9936C119.736 32.8716 120.449 33.5834 121.328 33.5834Z" fill="#A5A6AA"/>
<path d="M151.245 33.5819C152.123 33.5819 152.835 32.8708 152.835 31.9936C152.835 31.1165 152.123 30.4054 151.245 30.4054C150.367 30.4054 149.656 31.1165 149.656 31.9936C149.656 32.8708 150.367 33.5819 151.245 33.5819Z" fill="#A5A6AA"/>
<path d="M170.19 48.6513C168.663 47.5234 169.584 45.5869 170.728 44.6451C170.736 44.639 170.742 44.6314 170.747 44.6228C170.751 44.6142 170.754 44.6048 170.755 44.5951C170.756 44.5854 170.755 44.5756 170.753 44.5662C170.75 44.5569 170.745 44.5482 170.739 44.5407C170.563 44.3408 170.284 44.1954 170.133 44.0334C169.223 43.0503 168.765 41.9339 168.758 40.6843C168.747 36.5267 172.97 35.0112 176.336 36.4298C176.359 36.437 176.383 36.4375 176.406 36.4313C176.429 36.4252 176.45 36.4126 176.466 36.395C177.504 35.4684 178.722 35.1293 180.12 35.3776C180.139 35.3835 180.155 35.3965 180.164 35.4138C180.173 35.4311 180.175 35.4512 180.169 35.4699C180.169 35.4734 180.169 35.477 180.169 35.4805L179.69 37.0854C179.678 37.129 179.649 37.1663 179.61 37.1899C179.572 37.2135 179.525 37.2216 179.481 37.2126C178.917 37.0838 178.326 37.1428 177.799 37.3807C177.791 37.3846 177.784 37.3901 177.779 37.3967C177.773 37.4033 177.769 37.411 177.767 37.4193C177.765 37.4275 177.764 37.4361 177.766 37.4446C177.767 37.4531 177.77 37.4612 177.774 37.4685L177.785 37.4851C179.13 39.0809 179.415 40.8171 178.641 42.6935C177.659 45.0736 174.67 45.873 172.318 45.2507C172.296 45.2448 172.273 45.2452 172.251 45.2519C172.229 45.2586 172.209 45.2713 172.194 45.2886C170.907 46.7784 172.068 47.4779 173.421 47.755C175.184 48.1169 177.579 48.1517 179.072 49.2524C180.763 50.5015 180.486 53.0027 178.92 54.3275C176.481 56.3867 167.723 56.75 167.908 51.8929C167.962 50.4697 168.923 49.3493 170.181 48.7558C170.196 48.7486 170.207 48.736 170.212 48.7208C170.218 48.7055 170.217 48.6887 170.21 48.674C170.205 48.666 170.199 48.6588 170.192 48.6528L170.19 48.6513ZM173.099 43.3748C174.029 43.6655 175.504 43.3885 176.1 42.427C177.15 40.7282 176.481 38.1392 174.255 37.8939C170.728 37.5078 170.004 42.4164 173.099 43.3748ZM171.601 49.4674C168.92 51.2146 170.318 53.4494 172.89 53.8234C174.088 54.019 175.317 53.9028 176.457 53.4857C178.002 52.9013 178.329 51.2237 176.716 50.4394C176.359 50.2572 175.975 50.134 175.578 50.0746C174.291 49.905 173.011 49.694 171.739 49.4417C171.716 49.4365 171.691 49.436 171.668 49.4405C171.644 49.4449 171.621 49.4541 171.601 49.4674ZM76.6861 49.2464V55.719C76.6861 55.739 76.6781 55.7583 76.6639 55.7725C76.6497 55.7867 76.6304 55.7947 76.6103 55.7947L74.299 55.7947C74.279 55.7947 74.2597 55.7867 74.2455 55.7725C74.2313 55.7583 74.2233 55.739 74.2233 55.719V36.7553C74.2236 36.7365 74.2297 36.7183 74.2408 36.7031C74.252 36.6879 74.2675 36.6765 74.2854 36.6706C80.0446 34.5736 86.3904 36.5025 85.4144 43.882C84.8415 48.2138 80.8176 50.4031 76.7679 49.2024C76.7534 49.1963 76.7371 49.196 76.7224 49.2016C76.7077 49.2073 76.6958 49.2184 76.6891 49.2327C76.6884 49.2372 76.6884 49.2418 76.6891 49.2464L76.6861 49.2464ZM76.7316 46.998C79.3399 48.0926 82.1452 47.1267 82.7939 44.1727C83.2486 42.0531 82.8591 39.2445 80.6069 38.3269C79.3945 37.8303 78.1153 37.8046 76.7695 38.2497C76.7484 38.2557 76.7298 38.2681 76.7162 38.2853C76.7026 38.3024 76.6947 38.3233 76.6937 38.3451V46.9374C76.6941 46.9499 76.6978 46.9622 76.7045 46.9728C76.7111 46.9834 76.7205 46.9921 76.7316 46.998ZM131.087 44.5997C130.7 44.2272 130.123 43.9502 129.532 43.7125C128.448 43.2764 127.107 42.745 126.349 41.9501C125.789 41.3443 125.461 40.5608 125.422 39.7373C125.383 38.9137 125.636 38.1029 126.137 37.4473C127.74 35.373 131.223 35.6955 133.354 36.4843C133.379 36.4927 133.401 36.5087 133.417 36.5301C133.433 36.5515 133.442 36.5773 133.443 36.6039V38.5344C133.443 38.5558 133.435 38.5764 133.42 38.5917C133.405 38.6069 133.384 38.6157 133.363 38.6161C133.353 38.6184 133.343 38.6184 133.333 38.6161C132.144 38.0726 129.125 37.2913 128.162 38.5828C127.064 40.0545 128.812 41.0144 130.059 41.4959C131.999 42.2529 133.825 43.1053 133.956 45.4506C134.074 47.5703 132.651 48.9496 130.6 49.3478C128.631 49.7584 126.58 49.4279 124.841 48.4197C124.789 48.3909 124.762 48.3425 124.777 48.3076L125.52 46.5544C125.53 46.5271 125.574 46.5241 125.618 46.5453H125.63C126.932 47.3911 128.512 47.6949 130.035 47.3916C131.284 47.1509 132.132 45.6035 131.096 44.5982L131.087 44.5997ZM157.618 37.7319C157.626 37.7733 157.65 37.7763 157.691 37.741C159.046 36.5752 160.766 35.7576 162.591 35.9044C165.404 36.1285 166.094 38.4572 166.101 40.8418C166.109 43.6135 166.109 46.3868 166.101 49.1616C166.103 49.1822 166.096 49.2027 166.083 49.2186C166.07 49.2345 166.051 49.2444 166.03 49.2464L163.719 49.2464C163.698 49.2448 163.679 49.2352 163.665 49.2196C163.652 49.204 163.645 49.1837 163.646 49.1631C163.646 46.35 163.646 43.5389 163.646 40.7298C163.633 40.4934 163.601 40.2585 163.55 40.0272C162.906 36.613 159.27 38.3739 157.791 39.7805C157.774 39.7951 157.761 39.8129 157.751 39.833C157.741 39.853 157.735 39.8747 157.734 39.897V49.1707C157.734 49.1907 157.726 49.21 157.711 49.2242C157.697 49.2384 157.678 49.2464 157.658 49.2464H155.345C155.303 49.2464 155.269 49.1949 155.269 49.1328V36.2345C155.269 36.2285 155.271 36.2227 155.273 36.2172C155.276 36.2118 155.279 36.2069 155.284 36.2028C155.288 36.1988 155.293 36.1956 155.299 36.1935C155.304 36.1914 155.31 36.1904 155.316 36.1906H157.277C157.298 36.189 157.318 36.1949 157.335 36.2072C157.351 36.2194 157.363 36.2372 157.367 36.2572L157.618 37.735V37.7319ZM95.2975 47.9034C93.1545 49.6506 89.2094 50.5924 87.6741 47.4991C87.2558 46.6528 87.1467 45.7004 87.1437 44.6466C87.1366 41.8547 87.1366 39.0633 87.1437 36.2724C87.142 36.2517 87.1485 36.2312 87.1618 36.2154C87.1752 36.1995 87.1942 36.1895 87.2149 36.1876H89.5262C89.564 36.1876 89.5944 36.23 89.5944 36.2845C89.6034 39.0825 89.6065 41.8759 89.6034 44.6648C89.6034 48.4606 93.4864 47.6854 95.1611 45.8215C95.1932 45.7846 95.2104 45.7372 95.2096 45.6883V36.2633C95.2096 36.2432 95.2176 36.224 95.2318 36.2098C95.246 36.1956 95.2653 36.1876 95.2854 36.1876H97.6012C97.6391 36.1876 97.6709 36.2315 97.6709 36.2875C97.6709 39.4246 97.6709 42.5577 97.6709 45.6868C97.6702 46.8518 97.7512 48.0154 97.9134 49.1691C97.9178 49.1858 97.9157 49.2035 97.9075 49.2186C97.8994 49.2338 97.8858 49.2453 97.8695 49.2509H95.8204C95.801 49.2481 95.783 49.2392 95.7688 49.2257C95.7547 49.2121 95.7452 49.1945 95.7416 49.1752L95.4036 47.9231C95.4008 47.9154 95.3964 47.9084 95.3908 47.9025C95.3851 47.8966 95.3783 47.8919 95.3708 47.8888C95.3632 47.8857 95.3551 47.8841 95.3469 47.8843C95.3387 47.8845 95.3307 47.8863 95.3233 47.8898C95.3151 47.8932 95.3074 47.8978 95.3005 47.9034H95.2975Z" fill="#A5A6AA"/>
<path d="M122.492 36.1876H120.188C120.144 36.1876 120.108 36.2235 120.108 36.2678V49.1676C120.108 49.2119 120.144 49.2479 120.188 49.2479H122.492C122.536 49.2479 122.572 49.2119 122.572 49.1676V36.2678C122.572 36.2235 122.536 36.1876 122.492 36.1876Z" fill="#A5A6AA"/>
<path d="M152.399 36.1891H150.068C150.032 36.1891 150.003 36.2182 150.003 36.2542V49.1812C150.003 49.2172 150.032 49.2464 150.068 49.2464H152.399C152.435 49.2464 152.464 49.2172 152.464 49.1812V36.2542C152.464 36.2182 152.435 36.1891 152.399 36.1891Z" fill="#A5A6AA"/>
</svg>
