<svg version="1.2" xmlns="http://www.w3.org/2000/svg" viewBox="0 0 112 60" width="112" height="60">
	<title>partner2-svg</title>
	<style>
		.s0 { fill: #00aeef } 
		.s1 { fill: #ffffff } 
	</style>
	<g id="Layer">
		<path id="Layer" class="s0" d="m44.9 48.6h38v-47.5h-38l-22.8 11.4v47.5z"/>
		<path id="Layer" fill-rule="evenodd" class="s1" d="m32.8 24.9v4.7c0.7-0.9 1.8-1.4 3.1-1.4 2.8 0 4.7 2.4 4.7 5.5 0 3.2-1.9 5.6-4.7 5.6-1.3 0-2.4-0.5-3.1-1.4v1.2h-3.1v-14.2zm2.4 11.8c1.5 0 2.2-1.3 2.2-2.9 0-1.6-0.7-3-2.2-3-1.6 0-2.4 1.4-2.4 3 0 1.6 0.8 2.9 2.4 2.9zm6.6-11.8h3.1v14.2h-3.1zm14.4 3.6v10.6h-3v-1.1c-0.7 0.8-1.8 1.4-3.1 1.4-2.2 0-3.5-1.7-3.5-3.8v-7.1h3.1v6.4c0 0.9 0.3 1.8 1.5 1.8 1.1 0 2-0.7 2-2.1v-6.1zm8 3q-0.4-0.1-0.9-0.1c-1.3 0-2.3 0.9-2.3 3.1v4.6h-3v-10.6h3v1.3c0.6-0.9 1.5-1.5 2.6-1.5 0.3 0 0.9 0.1 1.1 0.2zm4.3-6.6v4.8c0.7-1 1.8-1.5 3.1-1.5 2.8 0 4.8 2.4 4.8 5.6 0 3.1-1.9 5.6-4.8 5.6-1.3 0-2.4-0.5-3.1-1.5v1.2h-3v-14.2zm2.3 11.8c1.5 0 2.3-1.3 2.3-2.9 0-1.6-0.8-2.9-2.3-2.9-1.6 0-2.3 1.3-2.3 2.9 0 1.7 0.7 2.9 2.3 2.9z"/>
	</g>
</svg>