<svg width="124" height="60" viewBox="0 0 124 60" fill="none" xmlns="http://www.w3.org/2000/svg">
<path d="M30.0879 2.4014C37.1753 -0.937987 45.769 -0.743363 52.802 2.66608C57.6945 5.01118 61.7369 8.81957 64.3691 13.5638C62.7423 14.3851 61.1076 15.1868 59.4768 15.9964C56.8582 11.2852 52.7521 7.57473 47.8007 5.44502C41.3048 2.60381 33.5479 2.68942 27.2039 5.90815C23.6582 7.61676 20.712 10.3334 18.2794 13.4004C20.9846 8.60204 25.1099 4.7596 30.0879 2.4014Z" fill="#F0A749"/>
<path d="M25.0788 17.0161C28.5233 11.6646 34.5793 7.92816 41.0363 7.99043C47.5204 7.91648 53.6816 11.6918 56.9587 17.2224C55.3396 18.0281 53.7127 18.8259 52.0936 19.6355C49.1551 14.7548 43.7335 11.4077 37.9888 11.3649C33.0887 11.1664 28.4377 13.5561 25.0827 17.0161H25.0788Z" fill="#E15436"/>
<path d="M10.8806 14.1516C20.9143 19.1801 30.952 24.1995 40.9935 29.2099C51.0298 24.1918 61.0674 19.1749 71.1063 14.1594C71.1063 15.5735 71.1063 16.9862 71.1063 18.3978C61.0648 23.4107 51.0272 28.4302 40.9935 33.4562C30.9597 28.4302 20.9247 23.4107 10.8884 18.3978C10.8858 16.9811 10.8832 15.5657 10.8806 14.1516Z" fill="#191918"/>
<path d="M32.4231 20.6785C34.2719 18.1254 36.9613 15.9185 40.2345 15.72C44.0565 15.3308 47.6294 17.6661 49.5754 20.842C47.9602 21.6593 46.3333 22.4572 44.7181 23.2706C43.2119 20.9821 40.8261 19.1178 38.0004 18.9543C35.9688 18.7208 34.0656 19.616 32.4037 20.6785H32.4231Z" fill="#84164D"/>
<path d="M94.9958 32.7595H101.313C101.313 41.6541 101.313 50.5488 101.313 59.4434H94.9919C94.9997 50.5462 95.001 41.6515 94.9958 32.7595ZM64.7778 32.7595H71.1024C71.1024 34.3682 71.1024 35.9769 71.1024 37.5856H64.7778C64.7778 35.9821 64.7817 34.3708 64.7778 32.7634V32.7595ZM21.6616 40.0493H27.9862C27.9862 43.8752 27.959 47.7011 27.9862 51.527C27.9551 52.8581 28.5856 54.4188 30.0451 54.6718C30.5478 54.8144 31.0759 54.8438 31.5913 54.7581C32.1067 54.6723 32.5968 54.4734 33.0262 54.1757C33.4556 53.878 33.8138 53.4889 34.0749 53.0363C34.336 52.5837 34.4937 52.0789 34.5366 51.5581C34.7662 47.7245 34.5754 43.8713 34.6377 40.0299H40.9857V59.4201H34.8362C34.8362 58.5171 34.8362 57.6181 34.8674 56.7229C33.6025 58.3731 31.7926 59.6731 29.6792 59.9027C27.5075 60.1167 25.0088 59.7587 23.4519 58.0851C22.0391 56.5283 21.7239 54.2943 21.6577 52.247C21.6305 48.1721 21.6577 44.097 21.6577 40.0182L21.6616 40.0493ZM64.7778 40.0493H71.1024C71.1024 46.5153 71.1024 52.98 71.1024 59.4434H64.7778C64.7778 52.9826 64.7778 46.5205 64.7778 40.0571V40.0493ZM123.221 51.2701C123.279 48.2382 122.661 45.0156 120.621 42.6609C116.904 38.3796 109.607 38.5275 105.66 42.4079C101.651 46.1598 101.593 53.2239 105.403 57.1276C108.583 60.1985 113.619 60.6305 117.651 59.2138C118.906 58.7561 120.036 58.0103 120.95 57.0361C121.864 56.062 122.537 54.8869 122.914 53.6054C120.967 53.5859 118.998 53.6054 117.044 53.6054C115.729 55.9873 112.14 56.4466 110.222 54.5784C109.307 53.7338 109.108 52.4533 108.852 51.3051C113.643 51.2429 118.43 51.3052 123.221 51.2779V51.2701ZM108.867 47.7128C109.186 46.7748 109.455 45.7667 110.151 45.0234C111.412 43.5755 113.841 43.2875 115.328 44.5602C116.32 45.3075 116.655 46.5607 116.947 47.7089C114.254 47.7634 111.56 47.7517 108.867 47.705V47.7128ZM56.0985 32.7595C56.0985 35.8926 56.0635 39.0257 56.1297 42.1549C53.7594 39.088 48.9994 38.6521 45.9403 40.9017C43.5739 42.657 42.4724 45.6578 42.3362 48.5223C42.1961 51.5659 42.7916 54.8158 44.7687 57.2249C46.7459 59.6341 50.276 60.5721 53.2184 59.6108C54.5495 59.1865 55.5536 58.163 56.4332 57.1471C56.4151 57.91 56.4034 58.6728 56.3982 59.4357H62.4192C62.4192 50.5384 62.4192 41.6437 62.4192 32.7517C60.3097 32.7517 58.2041 32.7517 56.0946 32.7517L56.0985 32.7595ZM55.6315 53.2979C54.7324 55.384 51.6343 55.7888 50.1125 54.1853C48.8009 52.7569 48.5557 50.6824 48.6647 48.822C48.7659 47.1757 49.4431 45.3192 51.0466 44.5991C52.6502 43.8791 54.7402 44.4396 55.5264 46.0625C56.0516 47.1941 56.3323 48.4236 56.3504 49.671C56.3685 50.9183 56.1236 52.1555 55.6315 53.3018V53.2979ZM90.4654 41.4038C87.4802 38.6132 82.1598 38.8584 79.6689 42.1822C79.7156 39.0335 79.6688 35.8887 79.6961 32.7439C77.5827 32.7439 75.4771 32.7439 73.3754 32.7439V59.4279H79.3925C79.3925 58.6495 79.3691 57.9061 79.3536 57.1471C80.311 58.2213 81.3891 59.2994 82.8253 59.6848C84.1507 60.057 85.5497 60.0814 86.8873 59.7555C88.2249 59.4297 89.4559 58.7645 90.4615 57.8243C92.6255 55.6993 93.4312 52.5623 93.4818 49.6121C93.5324 46.6619 92.6995 43.4782 90.4654 41.4076V41.4038ZM87.0794 50.8225C86.9081 52.1108 86.4994 53.4652 85.5225 54.3643C84.0124 55.7032 81.2413 55.3529 80.2682 53.5275C79.521 52.1225 79.4353 50.4567 79.4898 48.896C79.5638 47.1718 80.2994 45.218 82.0391 44.5641C83.3702 44.0737 85.0749 44.3111 85.974 45.5021C87.1416 46.9888 87.27 49.0049 87.0832 50.8225H87.0794ZM19.7 49.6549C19.5911 47.3975 20.0581 44.9844 19.0384 42.8671C18.0186 40.7499 15.5939 39.9053 13.4105 39.664C10.2968 39.3604 6.86012 39.3643 4.11622 41.1041C2.43096 42.1549 1.62918 44.097 1.4229 46.0042C3.36893 46.0042 5.31496 46.0042 7.26099 46.0042C7.68522 45.1713 8.07834 44.1749 9.03968 43.844C10.3396 43.4159 11.9392 43.4548 13.0524 44.3344C14.0565 45.0739 13.8541 46.9772 12.5542 47.2613C9.75579 48.0163 6.71613 47.8607 4.0345 49.0166C2.47768 49.6316 1.13099 50.9626 0.885792 52.6518C0.640593 54.3409 0.660057 56.3881 1.8627 57.8049C3.3339 59.6302 5.85595 60.1401 8.09 59.9689C10.1755 59.8673 12.1632 59.0541 13.7218 57.6647C13.823 58.2525 13.9359 58.8324 14.0527 59.4434C16.1699 59.4434 18.2833 59.4434 20.3967 59.4434C19.2952 56.2948 19.8362 52.897 19.7078 49.6276L19.7 49.6549ZM12.85 54.7418C11.8886 56.2091 9.79859 56.3532 8.26902 55.8472C6.66549 55.2478 6.6149 52.7141 8.12891 51.9551C9.86087 51.0989 11.8575 51.0405 13.6751 50.4333C13.5739 51.8734 13.6478 53.4497 12.85 54.7146V54.7418Z" fill="#191918"/>
</svg>
