<svg width="258" height="40" viewBox="0 0 258 40" fill="none" xmlns="http://www.w3.org/2000/svg">
<path d="M17.5314 28.2457C17.5314 35.9218 14.1028 38.6971 8.38853 38.6971H0.224731V2.12564H8.38853C14.7561 2.12564 16.3923 5.87994 16.3923 12.0838C16.3923 16.6552 14.7599 19.1047 11.9846 19.2685C15.0819 19.2666 17.5314 22.3695 17.5314 28.2457ZM6.59234 21.3904V34.2894H8.22473C10.1847 34.2894 10.6742 33.1447 10.6742 27.5886C10.6742 23.5067 10.1847 21.383 8.06837 21.383L6.59234 21.3904ZM6.59234 6.36947V16.9791H8.22473C9.85712 16.9791 10.1847 15.3467 10.1847 12.2438C10.1847 7.99813 9.85711 6.36576 7.7352 6.36576L6.59234 6.36947ZM53.6151 19.92C57.6952 21.0628 58.1866 25.9618 58.1866 30.3695C58.1866 33.7999 58.3504 36.9009 58.8399 38.6952H52.1391C51.9753 37.2266 51.6496 36.5733 51.6496 33.1429V28.5714C51.6496 25.6343 50.6687 23.5105 48.5467 22.8571H48.2285V38.6934H41.5277V2.12564H51.322C55.8953 2.12564 58.9981 4.7315 58.9981 11.4323C58.9981 17.1466 56.5467 19.5961 53.6003 19.9237L53.6151 19.92ZM48.2173 6.6952V17.3048H50.1773C51.8097 17.3048 52.2992 16.1601 52.2992 12.8953C52.2992 7.49744 51.3201 6.69149 49.362 6.69149L48.2173 6.6952ZM70.0972 18.7771C70.423 23.6743 70.423 24.9809 70.423 29.3867V38.6934H64.3904V2.12564H70.4323C70.4323 2.12564 73.2075 12.9009 73.8608 15.1866C74.5142 17.4723 75.0037 19.2685 75.3294 20.9009C75.1675 17.3085 75.0037 12.8972 75.0037 9.30852V2.12564H80.8818V38.6952H75.4839C75.4839 38.6952 72.2191 27.4286 71.5751 25.1447C70.9969 23.0439 70.5074 20.922 70.1065 18.779L70.0972 18.7771ZM93.1238 33.1429H101.127V38.6952H86.7599V2.12564H100.148V7.67799H93.1238V17.4742H99.3276V22.5351H93.1238V33.1429ZM110.594 30.2057C110.594 34.2876 111.573 34.9428 113.044 34.9428C114.187 34.9428 115.002 34.2894 115.002 30.2057C115.002 26.6133 112.554 24.0019 109.941 20.7371C107.335 17.7962 104.552 13.7161 104.552 10.2876C104.552 4.73708 107.158 1.63424 112.227 1.63424C117.295 1.63424 120.063 4.40762 120.063 9.79804C120.063 10.939 119.737 11.9218 119.573 12.7371H114.187C114.187 12.0838 114.349 11.2666 114.349 10.1312C114.349 6.70265 113.859 5.55979 112.39 5.55979C110.922 5.55979 110.758 7.02838 110.758 9.64169C110.758 12.9065 113.364 15.5198 115.493 18.295C118.594 22.2038 121.044 25.316 121.044 29.0703C121.044 34.9502 118.594 39.356 112.88 39.356C107.981 39.356 104.716 36.7501 104.716 30.3788C104.716 28.9102 104.716 27.6017 105.042 26.4588L110.922 26.295C110.756 27.7636 110.594 28.5807 110.594 30.2131V30.2057ZM165.945 18.7771C166.27 23.6743 166.27 24.9809 166.27 29.3867V38.6934H160.228V2.12564H166.274C166.274 2.12564 169.051 12.9009 169.703 15.1866C170.354 17.4723 170.846 19.2685 171.006 20.9009C170.842 17.3085 170.842 12.8972 170.842 9.30852V2.12564H176.722V38.6952H171.324C171.324 38.6952 168.059 27.4286 167.415 25.1429C166.837 23.0433 166.348 20.9214 165.948 18.7771H165.945ZM198.762 20.4095C198.762 36.0856 196.156 39.3485 190.108 39.3485C184.558 39.3485 181.619 36.9009 181.619 20.4095C181.619 4.40204 183.905 1.63424 190.108 1.63424C196.48 1.63424 198.765 4.40763 198.765 20.4095H198.762ZM191.903 20.4095C191.903 14.6952 191.903 11.1028 191.741 8.49697C191.579 5.89111 191.087 5.39413 190.108 5.39413C189.129 5.39413 188.638 5.88366 188.478 8.49697C188.318 11.1103 188.314 14.7008 188.314 20.4095C188.314 27.1103 188.314 29.7161 188.478 32.1657C188.638 34.9428 189.129 35.2685 190.108 35.2685C191.253 35.2685 191.577 35.1066 191.741 32.1657C191.903 29.5598 191.903 27.1047 191.903 20.4114V20.4095ZM220.967 28.2457C220.967 35.9218 217.537 38.6971 211.823 38.6971H203.659V2.12564H211.823C218.19 2.12564 219.826 5.87994 219.826 12.0838C219.826 16.6552 218.194 19.1047 215.419 19.2685C218.522 19.2666 220.971 22.3695 220.971 28.2457H220.967ZM210.027 21.3904V34.2894H211.661C213.617 34.2894 214.112 33.1447 214.112 27.5886C214.112 23.5067 213.621 21.383 211.506 21.383L210.027 21.3904ZM210.027 6.36947V16.9791H211.661C213.291 16.9791 213.617 15.3467 213.617 12.2438C213.617 7.99813 213.129 6.36576 211.169 6.36576L210.027 6.36947ZM232.232 33.1429H239.906V38.6952H225.539V2.12564H232.24L232.232 33.1429ZM249.866 33.1429H257.87V38.6952H243.501V2.12564H256.891V7.67799H249.87V17.4742H256.074V22.5351H249.87L249.866 33.1429ZM19.9734 38.6971L25.2038 1.95998H31.5733L37.7771 38.6971H30.9199L30.2666 32.8171H26.1866L25.5332 38.6971H19.9734ZM26.6742 28.7427H29.9409C29.9409 28.7427 29.4495 24.4988 29.1237 21.7236C28.96 20.0912 28.3066 14.7027 28.1447 11.2741C27.9809 14.8665 27.4895 20.0912 27.3276 21.7236C27.1656 24.4914 26.6742 28.7427 26.6742 28.7427Z" fill="black"/>
<path d="M152.56 19.5924C149.954 19.5924 148.15 21.2266 147.007 23.6743C145.865 26.1219 144.558 29.2248 143.743 30.859C140.967 25.9618 138.844 22.2057 137.537 18.779C139.659 17.476 143.415 15.6743 145.701 13.7162C147.825 11.7562 148.804 9.80735 149.293 7.67426C149.946 3.59237 147.659 0 142.436 0C138.028 0 132.802 3.42857 131.826 9.14472C131.339 11.92 131.988 15.6743 133.129 18.7771C129.221 21.383 125.785 24.3276 124.805 28.9009C123.661 36.5733 128.398 40 133.785 40C137.379 40 140.152 38.3695 142.438 35.92C144.068 37.7143 146.194 40 148.805 40C150.929 40 153.213 38.6971 155.011 36.4095L154.194 35.2666C152.564 36.899 151.419 37.5524 150.44 37.5524C148.644 37.5524 147.011 35.92 145.377 33.6343C145.245 33.2396 145.081 32.8561 144.887 32.4877C145.868 30.5296 146.52 28.4076 147.493 26.4476C149.127 22.8553 150.099 21.5486 151.579 21.5486C154.185 21.5486 152.067 25.7943 154.844 25.7943C156.147 25.7943 156.802 24.8153 156.966 23.6724C157.131 22.2057 156.152 19.5924 152.56 19.5924ZM136.232 8.1638C136.558 5.55793 138.838 2.7771 142.272 2.7771C144.878 2.7771 146.68 4.73709 146.027 7.83806C145.865 8.98092 145.539 10.1238 144.396 11.5924C143.093 13.061 138.844 15.6743 136.886 16.8171C135.903 13.8781 135.577 11.1028 136.232 8.1638ZM135.253 37.5542C130.192 37.5542 128.396 33.3104 128.884 30.0419C129.537 25.9618 131.49 23.5123 133.945 21.2266C135.856 25.9644 138.323 30.4587 141.293 34.6152C139.497 36.7464 137.866 37.5542 135.253 37.5542ZM145.046 36.4058C144.876 36.2308 140.243 31.3523 136.396 22.6952C131.573 12.2476 134.821 6.87389 134.924 6.69893C134.873 6.86645 133.187 12.5528 137.047 22.0437C140.262 29.759 144.902 36.2066 145.055 36.4058H145.046Z" fill="#D15400"/>
</svg>
