<svg width="269" height="50" viewBox="0 0 269 50" fill="none" xmlns="http://www.w3.org/2000/svg">
<path d="M174.374 0H180.412V21.2094L188.589 11.4964H195.813L186.34 22.5144L196.642 36.9691H189.537L180.536 24.1733H180.417V36.9691H174.376L174.374 0Z" fill="#BF0000"/>
<path d="M207.293 33.4135C211.557 33.4135 212.267 29.0312 212.267 24.2894C212.267 19.5477 211.676 15.1653 207.293 15.1653C203.031 15.1653 202.318 19.5504 202.318 24.2894C202.434 29.0284 203.029 33.4135 207.293 33.4135ZM196.042 24.2894C196.042 15.8759 199.953 10.8991 207.293 10.8991C214.633 10.8991 218.543 15.8759 218.543 24.2894C218.543 32.7029 214.635 37.677 207.293 37.677C199.953 37.5581 196.042 32.5813 196.042 24.2894ZM232.521 33.4135C236.309 33.4135 237.02 28.4367 237.02 24.2894C237.02 19.6693 236.547 14.6926 232.521 14.6926C228.967 14.6926 227.784 19.9043 227.784 24.2894C227.784 30.6873 228.732 33.4135 232.521 33.4135ZM227.784 14.5764C228.732 13.2714 230.625 10.9019 234.533 10.9019C240.692 10.9019 243.298 16.1165 243.298 24.2922C243.298 31.4007 240.811 37.6797 232.521 37.6797C225.769 37.6797 221.862 33.8891 221.862 26.1861V0H227.784V14.5764ZM257.63 33.4135C261.891 33.4135 262.604 29.0312 262.604 24.2894C262.604 19.5477 262.013 15.1653 257.63 15.1653C253.366 15.1653 252.656 19.5504 252.656 24.2894C252.656 29.0284 253.247 33.4135 257.63 33.4135ZM246.261 24.2894C246.261 15.8759 250.169 10.8991 257.511 10.8991C264.854 10.8991 268.761 15.8759 268.761 24.2894C268.761 32.7029 264.854 37.677 257.511 37.677C250.169 37.5581 246.261 32.5813 246.261 24.2894ZM132.457 42.0621H33.3295L41.2663 50L132.457 42.0621ZM42.5679 10.1913V11.3775C40.6722 10.1913 39.1329 9.48075 36.7646 9.48075C29.7784 9.48075 24.5664 15.7598 24.5664 23.5816C24.5664 31.4035 29.8972 37.6825 36.7646 37.6825C39.0141 37.6825 40.6722 36.9719 42.5679 35.7858V36.9719H48.6062V10.1913H42.5679ZM36.7646 31.1629C33.3295 31.1629 30.8451 27.8451 30.8451 23.5816C30.8451 19.3182 33.3323 15.9976 36.7646 15.9976C40.1968 15.9976 42.5679 19.3154 42.5679 23.5816C42.6757 27.8451 40.1885 31.1629 36.7646 31.1629ZM91.3577 10.1913V25.9511C91.3577 28.9123 89.3459 31.4007 86.3834 31.4007C83.4209 31.4007 81.4091 28.9123 81.4091 25.9511V10.1913H75.3708V25.9511C75.3708 32.4679 79.7537 37.6797 86.2646 37.6797C88.1253 37.64 89.9349 37.0639 91.4766 36.0208V36.9691H97.6337V10.1913H91.3577ZM148.2 21.2094C148.2 18.2454 150.215 15.757 153.175 15.757C156.134 15.757 158.149 18.2454 158.149 21.2094V36.9691H164.187V21.2094C164.187 14.6926 159.807 9.478 153.294 9.478C151.433 9.51778 149.623 10.0938 148.082 11.1369V10.1886H142.043V37.0853H148.2V21.2094Z" fill="#BF0000"/>
<path d="M7.04022 36.9691V26.5428H11.542L19.3572 36.9691H27.2912L17.8179 24.4111C19.8185 22.9775 21.3129 20.9459 22.0862 18.6086C22.8595 16.2714 22.8718 13.7489 22.1214 11.4042C21.3709 9.05951 19.8964 7.01344 17.9099 5.56036C15.9234 4.10729 13.5274 3.32212 11.0667 3.31785H0.645447V36.8475H7.04022V36.9691ZM7.04022 9.83743H11.1855C11.8798 9.82143 12.5704 9.94445 13.2166 10.1992C13.8627 10.454 14.4515 10.8355 14.9482 11.3211C15.445 11.8068 15.8397 12.3869 16.1092 13.0274C16.3787 13.6678 16.5175 14.3557 16.5175 15.0506C16.5175 15.7455 16.3787 16.4334 16.1092 17.0738C15.8397 17.7143 15.445 18.2944 14.9482 18.7801C14.4515 19.2657 13.8627 19.6472 13.2166 19.902C12.5704 20.1568 11.8798 20.2798 11.1855 20.2638H7.04022V9.83743ZM113.974 30.6901C113.383 31.044 112.789 31.4007 111.96 31.4007C111.015 31.4007 109.119 30.6901 109.119 28.0828V16.5893H114.328V10.1913H109.119V3.43951H102.962V10.1913H99.7643V16.5893H102.962V28.2017C102.962 34.243 107.461 37.7986 112.081 37.7986C113.739 37.7986 116.108 37.2069 118.004 36.1397L113.974 30.6901ZM63.7641 22.7522L74.3013 10.1913H65.7787L58.4277 19.5532V1.18889H52.1601V36.9691H58.4277V25.9511L67.4285 36.9691H75.9539L63.7641 22.7522Z" fill="#BF0000"/>
<path d="M128.068 9.48075C120.963 9.48075 115.989 15.6437 115.989 23.5816C115.989 31.8762 122.384 37.6825 128.662 37.6825C131.86 37.6825 136.002 36.6152 139.44 31.6412L134.112 28.5584C129.967 34.7213 122.981 31.6412 122.152 25.4783H139.675C141.214 15.7626 134.938 9.48352 128.068 9.48352V9.48075ZM133.399 20.1449H122.384C123.688 13.8658 132.214 13.5092 133.399 20.1449Z" fill="#BF0000"/>
</svg>
